<mxfile host="app.diagrams.net" modified="2023-10-23T10:58:39.847Z" agent="Mozilla/5.0 (Windows NT 10.0; Win64; x64) AppleWebKit/537.36 (KHTML, like Gecko) Chrome/118.0.0.0 Safari/537.36" etag="1iwJW-RB9kel3EnU11Au" version="22.0.6" type="device">
  <diagram name="Pagina-1" id="yIf8LjUUmN3w4QfTW6sw">
    <mxGraphModel dx="1134" dy="719" grid="1" gridSize="10" guides="1" tooltips="1" connect="1" arrows="1" fold="1" page="1" pageScale="1" pageWidth="827" pageHeight="1169" math="0" shadow="0">
      <root>
        <mxCell id="0" />
        <mxCell id="1" parent="0" />
        <mxCell id="5nyG45vSVXrHwcdyFN02-1" value="Paziente" style="shape=umlActor;verticalLabelPosition=bottom;verticalAlign=top;html=1;" vertex="1" parent="1">
          <mxGeometry x="100" y="90" width="30" height="60" as="geometry" />
        </mxCell>
        <mxCell id="5nyG45vSVXrHwcdyFN02-2" value="Operatore Sanitario" style="shape=umlActor;verticalLabelPosition=bottom;verticalAlign=top;html=1;" vertex="1" parent="1">
          <mxGeometry x="100" y="310" width="30" height="60" as="geometry" />
        </mxCell>
        <mxCell id="5nyG45vSVXrHwcdyFN02-4" value="Operatore Ufficio" style="shape=umlActor;verticalLabelPosition=bottom;verticalAlign=top;html=1;" vertex="1" parent="1">
          <mxGeometry x="550" y="90" width="30" height="60" as="geometry" />
        </mxCell>
        <mxCell id="5nyG45vSVXrHwcdyFN02-5" value="Medico" style="shape=umlActor;verticalLabelPosition=bottom;verticalAlign=top;html=1;" vertex="1" parent="1">
          <mxGeometry x="550" y="310" width="30" height="60" as="geometry" />
        </mxCell>
        <mxCell id="5nyG45vSVXrHwcdyFN02-8" value="Registrazione" style="ellipse;whiteSpace=wrap;html=1;" vertex="1" parent="1">
          <mxGeometry x="274" y="50" width="140" height="70" as="geometry" />
        </mxCell>
        <mxCell id="5nyG45vSVXrHwcdyFN02-19" value="" style="endArrow=none;html=1;rounded=0;entryX=0;entryY=0.5;entryDx=0;entryDy=0;" edge="1" parent="1" source="5nyG45vSVXrHwcdyFN02-1" target="5nyG45vSVXrHwcdyFN02-8">
          <mxGeometry width="50" height="50" relative="1" as="geometry">
            <mxPoint x="170" y="300" as="sourcePoint" />
            <mxPoint x="220" y="250" as="targetPoint" />
          </mxGeometry>
        </mxCell>
        <mxCell id="5nyG45vSVXrHwcdyFN02-21" value="" style="endArrow=none;html=1;rounded=0;entryX=0;entryY=0;entryDx=0;entryDy=0;" edge="1" parent="1" target="5nyG45vSVXrHwcdyFN02-10">
          <mxGeometry width="50" height="50" relative="1" as="geometry">
            <mxPoint x="130" y="120" as="sourcePoint" />
            <mxPoint x="340" y="250" as="targetPoint" />
          </mxGeometry>
        </mxCell>
        <mxCell id="5nyG45vSVXrHwcdyFN02-22" value="" style="endArrow=none;html=1;rounded=0;entryX=0;entryY=0.5;entryDx=0;entryDy=0;" edge="1" parent="1" target="5nyG45vSVXrHwcdyFN02-9">
          <mxGeometry width="50" height="50" relative="1" as="geometry">
            <mxPoint x="130" y="340" as="sourcePoint" />
            <mxPoint x="340" y="250" as="targetPoint" />
          </mxGeometry>
        </mxCell>
        <mxCell id="5nyG45vSVXrHwcdyFN02-23" value="" style="endArrow=none;html=1;rounded=0;exitX=1;exitY=0.5;exitDx=0;exitDy=0;" edge="1" parent="1" source="5nyG45vSVXrHwcdyFN02-8" target="5nyG45vSVXrHwcdyFN02-4">
          <mxGeometry width="50" height="50" relative="1" as="geometry">
            <mxPoint x="290" y="300" as="sourcePoint" />
            <mxPoint x="340" y="250" as="targetPoint" />
          </mxGeometry>
        </mxCell>
        <mxCell id="5nyG45vSVXrHwcdyFN02-24" value="" style="endArrow=none;html=1;rounded=0;exitX=1;exitY=0.5;exitDx=0;exitDy=0;" edge="1" parent="1" source="5nyG45vSVXrHwcdyFN02-9" target="5nyG45vSVXrHwcdyFN02-5">
          <mxGeometry width="50" height="50" relative="1" as="geometry">
            <mxPoint x="290" y="300" as="sourcePoint" />
            <mxPoint x="340" y="250" as="targetPoint" />
          </mxGeometry>
        </mxCell>
        <mxCell id="5nyG45vSVXrHwcdyFN02-25" value="" style="endArrow=none;html=1;rounded=0;exitX=1;exitY=0;exitDx=0;exitDy=0;" edge="1" parent="1" source="5nyG45vSVXrHwcdyFN02-10">
          <mxGeometry width="50" height="50" relative="1" as="geometry">
            <mxPoint x="290" y="300" as="sourcePoint" />
            <mxPoint x="550" y="120" as="targetPoint" />
          </mxGeometry>
        </mxCell>
        <mxCell id="5nyG45vSVXrHwcdyFN02-26" value="" style="endArrow=none;html=1;rounded=0;entryX=0;entryY=0;entryDx=0;entryDy=0;" edge="1" parent="1" target="5nyG45vSVXrHwcdyFN02-11">
          <mxGeometry width="50" height="50" relative="1" as="geometry">
            <mxPoint x="120" y="170" as="sourcePoint" />
            <mxPoint x="340" y="250" as="targetPoint" />
          </mxGeometry>
        </mxCell>
        <mxCell id="5nyG45vSVXrHwcdyFN02-27" value="" style="endArrow=none;html=1;rounded=0;entryX=0;entryY=0;entryDx=0;entryDy=0;" edge="1" parent="1" target="5nyG45vSVXrHwcdyFN02-9">
          <mxGeometry width="50" height="50" relative="1" as="geometry">
            <mxPoint x="130" y="120" as="sourcePoint" />
            <mxPoint x="320" y="250" as="targetPoint" />
          </mxGeometry>
        </mxCell>
        <mxCell id="5nyG45vSVXrHwcdyFN02-28" value="" style="endArrow=none;html=1;rounded=0;exitX=1;exitY=0;exitDx=0;exitDy=0;" edge="1" parent="1" source="5nyG45vSVXrHwcdyFN02-11">
          <mxGeometry width="50" height="50" relative="1" as="geometry">
            <mxPoint x="270" y="300" as="sourcePoint" />
            <mxPoint x="560" y="170" as="targetPoint" />
          </mxGeometry>
        </mxCell>
        <mxCell id="5nyG45vSVXrHwcdyFN02-29" value="HospitalManager" style="text;html=1;strokeColor=none;fillColor=none;align=center;verticalAlign=middle;whiteSpace=wrap;rounded=0;strokeWidth=1;fontStyle=1;fontSize=20;" vertex="1" parent="1">
          <mxGeometry x="314" y="10" width="60" height="30" as="geometry" />
        </mxCell>
        <mxCell id="5nyG45vSVXrHwcdyFN02-31" value="" style="swimlane;startSize=0;strokeWidth=4;" vertex="1" parent="1">
          <mxGeometry x="230" y="10" width="220" height="530" as="geometry" />
        </mxCell>
        <mxCell id="5nyG45vSVXrHwcdyFN02-11" value="Cancellazione della&lt;br&gt;prenotazione" style="ellipse;whiteSpace=wrap;html=1;" vertex="1" parent="5nyG45vSVXrHwcdyFN02-31">
          <mxGeometry x="44" y="430" width="140" height="70" as="geometry" />
        </mxCell>
        <mxCell id="5nyG45vSVXrHwcdyFN02-10" value="Prenotazione" style="ellipse;whiteSpace=wrap;html=1;" vertex="1" parent="5nyG45vSVXrHwcdyFN02-31">
          <mxGeometry x="44" y="295" width="140" height="70" as="geometry" />
        </mxCell>
        <mxCell id="5nyG45vSVXrHwcdyFN02-9" value="Accesso e visione&amp;nbsp;&lt;br&gt;informazioni" style="ellipse;whiteSpace=wrap;html=1;" vertex="1" parent="5nyG45vSVXrHwcdyFN02-31">
          <mxGeometry x="44" y="170" width="140" height="70" as="geometry" />
        </mxCell>
      </root>
    </mxGraphModel>
  </diagram>
</mxfile>
